<svg xmlns="http://www.w3.org/2000/svg" width="22.333" height="26.281" viewBox="0 0 22.333 26.281">
  <path id="book-bookmark" d="M28.79,7.9h0a.572.572,0,0,0-.561-.553H27.057V28.39a.573.573,0,0,1-.563.573v0H8.765a.573.573,0,0,1-.564-.479V27.23h16.52a.573.573,0,0,0,.574-.574V4.99a.573.573,0,0,0-.574-.574H22.706V16.59a.273.273,0,0,1-.474.185L20.259,14.8h-.007a.232.232,0,0,0-.358,0h-.007L17.9,16.789h0a.272.272,0,0,1-.459-.2V4.417H7.031a.573.573,0,0,0-.574.574c0,.008,0,.015,0,.022V30.1c0,.007,0,.014,0,.02s0,.014,0,.02v.026h0a.571.571,0,0,0,.569.526h21.2a.572.572,0,0,0,.563-.572V7.9Z" transform="translate(-6.457 -4.416)" fill="#3a4d66"/>
</svg>
