<svg id="Layer_37" data-name="Layer 37" xmlns="http://www.w3.org/2000/svg" width="25.52" height="25.52" viewBox="0 0 25.52 25.52">
  <path id="Tracé_4290" data-name="Tracé 4290" d="M20.565,23.117H1.851A.851.851,0,0,1,1,22.266V1.851A.851.851,0,0,1,1.851,1H20.565a.851.851,0,0,1,.851.851V22.266A.851.851,0,0,1,20.565,23.117ZM2.7,21.416H19.714V2.7H2.7Z" transform="translate(-1 -1)" fill="#101820"/>
  <path id="Tracé_4291" data-name="Tracé 4291" d="M26.565,27.117H7.851a.851.851,0,0,1,0-1.7H25.714V6.7h-.851a.851.851,0,1,1,0-1.7h1.7a.851.851,0,0,1,.851.851V26.266A.851.851,0,0,1,26.565,27.117Z" transform="translate(-1.896 -1.597)" fill="#101820"/>
  <path id="Tracé_4292" data-name="Tracé 4292" d="M1.852,20.647a.846.846,0,0,1-.6-1.446L4.7,15.662a2.271,2.271,0,0,1,2.96-.247l3.054,2.212a.578.578,0,0,0,.749-.068l3.147-3.164a2.339,2.339,0,0,1,3.249,0l3.3,3.343a.851.851,0,0,1-1.208,1.191l-3.3-3.343a.587.587,0,0,0-.851,0l-3.156,3.19a2.28,2.28,0,0,1-2.96.255L6.633,16.819a.57.57,0,0,0-.749.06L2.456,20.392A.851.851,0,0,1,1.852,20.647Z" transform="translate(-1.001 -2.902)" fill="#101820"/>
  <path id="Tracé_4293" data-name="Tracé 4293" d="M13.253,11.665a3.4,3.4,0,1,1,3.4-3.4A3.4,3.4,0,0,1,13.253,11.665Zm0-5.1a1.7,1.7,0,1,0,1.7,1.7A1.7,1.7,0,0,0,13.253,6.561Z" transform="translate(-2.322 -1.576)" fill="#101820"/>
</svg>
