<svg id="layer1" xmlns="http://www.w3.org/2000/svg" width="21.695" height="26.673" viewBox="0 0 21.695 26.673">
  <g id="g899" transform="translate(0)">
    <g id="g876">
      <path id="path890" d="M-50.793,183.976a2.759,2.759,0,0,0-2.755,2.756v21.162a2.759,2.759,0,0,0,2.755,2.756h16.182a2.759,2.759,0,0,0,2.755-2.756v-17.4a2.281,2.281,0,0,0-.178-1.005,2.786,2.786,0,0,0-.545-.788l0,0-4.015-3.938-.007-.007a3.176,3.176,0,0,0-.851-.544,3.11,3.11,0,0,0-1.215-.23H-50.793Z" transform="translate(53.548 -183.976)" fill="#ff2116"/>
      <path id="rect2684" d="M-48.556,187.118h12.142a2.586,2.586,0,0,1,.84.157,2.3,2.3,0,0,1,.585.37l0,0,4,3.929a2.21,2.21,0,0,1,.358.517,1.962,1.962,0,0,1,.1.6q0,.01,0,.019v17.42a1.836,1.836,0,0,1-1.85,1.85H-48.556a1.836,1.836,0,0,1-1.85-1.85V188.968a1.836,1.836,0,0,1,1.85-1.85Z" transform="translate(51.311 -186.213)" fill="#f5f5f5"/>
      <path id="path2697" d="M-35.3,212.557c-.623-.623.051-1.479,1.88-2.387l1.151-.572.448-.981c.247-.539.614-1.42.818-1.956l.369-.975-.255-.722a5.156,5.156,0,0,1-.226-2.7c.269-.649,1.15-.583,1.5.113a4.4,4.4,0,0,1-.078,2.77l-.265,1.018.233.4a13.746,13.746,0,0,0,.833,1.149l.62.771.771-.1c2.449-.32,3.288.224,3.288,1,0,.983-1.923,1.064-3.538-.07a4.9,4.9,0,0,1-.613-.509s-1.012.206-1.51.34c-.514.139-.771.225-1.524.48,0,0-.264.384-.436.663a7.138,7.138,0,0,1-1.923,2.211,1.311,1.311,0,0,1-1.541.059Zm.977-.349a7.37,7.37,0,0,0,1.549-1.832l.2-.315-.9.455c-1.4.7-2.035,1.364-1.7,1.764.187.225.41.206.86-.072Zm9.071-2.546a.526.526,0,0,0-.094-.918,2.542,2.542,0,0,0-1.327-.171c-.481.033-1.254.13-1.385.159,0,0,.425.294.613.4a8.152,8.152,0,0,0,1.307.546C-25.7,209.814-25.448,209.8-25.255,209.662Zm-3.647-1.516a8.951,8.951,0,0,1-.783-1.01,5.631,5.631,0,0,1-.439-.654s-.214.687-.389,1.1l-.547,1.351-.159.307s.843-.276,1.271-.388c.454-.119,1.376-.3,1.376-.3Zm-1.175-4.714a1.98,1.98,0,0,0-.067-1.11c-.4-.432-.872-.072-.792.956a7.008,7.008,0,0,0,.228,1.3l.209.662.147-.5A13.085,13.085,0,0,0-30.078,203.432Z" transform="translate(40.72 -196.676)" fill="#ff2116"/>
      <g id="g858" transform="translate(6.475 18.765)">
        <path id="path845" d="M-31.067,249.125h1.011a2.748,2.748,0,0,1,.787.093.924.924,0,0,1,.509.4,1.327,1.327,0,0,1,.206.751,1.365,1.365,0,0,1-.168.694.984.984,0,0,1-.452.419,2.2,2.2,0,0,1-.868.129h-.35v1.594h-.676Zm.676.524v1.424h.335a.882.882,0,0,0,.619-.168.731.731,0,0,0,.174-.544.817.817,0,0,0-.114-.455.466.466,0,0,0-.251-.215,1.572,1.572,0,0,0-.428-.042Z" transform="translate(31.067 -249.125)" fill="#2c2c2c"/>
        <path id="path847" d="M-20.547,249.125h.918a2.076,2.076,0,0,1,1.065.236,1.47,1.47,0,0,1,.6.7,2.531,2.531,0,0,1,.206,1.035,2.89,2.89,0,0,1-.185,1.068,1.7,1.7,0,0,1-.562.754,1.748,1.748,0,0,1-1.077.287h-.969Zm.676.541v3h.281a.947.947,0,0,0,.856-.407,1.98,1.98,0,0,0,.266-1.092q0-1.5-1.122-1.5Z" transform="translate(23.577 -249.125)" fill="#2c2c2c"/>
        <path id="path849" d="M-8.593,249.125h2.267v.541H-7.916v1.221h1.274v.541H-7.916v1.78h-.676Z" transform="translate(15.066 -249.125)" fill="#2c2c2c"/>
      </g>
    </g>
  </g>
</svg>
