<?xml version="1.0" standalone="no"?>
<!DOCTYPE svg PUBLIC "-//W3C//DTD SVG 20010904//EN"
 "http://www.w3.org/TR/2001/REC-SVG-20010904/DTD/svg10.dtd">
<svg version="1.0" xmlns="http://www.w3.org/2000/svg"
 width="146.000000pt" height="111.000000pt" viewBox="0 0 146.000000 111.000000"
 preserveAspectRatio="xMidYMid meet">

<g transform="translate(0.000000,111.000000) scale(0.100000,-0.100000)"
fill="#000000" stroke="none">
<path d="M655 949 c-79 -11 -171 -58 -240 -121 -58 -53 -65 -65 -40 -74 9 -4
32 9 58 33 177 163 413 162 582 -2 37 -37 46 -41 61 -31 15 12 13 17 -21 54
-95 105 -254 161 -400 141z"/>
<path d="M654 821 c-53 -13 -118 -49 -153 -85 -31 -32 -32 -34 -13 -40 15 -5
34 3 67 28 99 76 223 76 336 0 34 -23 58 -32 71 -28 19 6 19 6 1 26 -72 80
-206 123 -309 99z"/>
<path d="M626 678 c-38 -19 -39 -21 -21 -34 11 -8 26 -11 35 -8 58 25 92 28
137 12 54 -19 77 -15 63 12 -23 43 -148 53 -214 18z"/>
<path d="M880 594 c-59 -30 -116 -66 -131 -83 l-25 -31 -34 36 c-28 30 -202
124 -229 124 -3 0 -5 -80 -5 -177 l2 -178 110 -60 c60 -33 117 -66 126 -74 19
-16 21 -36 4 -28 -7 3 -74 30 -148 61 l-135 54 -3 176 c-2 147 -5 176 -17 176
-13 0 -15 -28 -15 -181 l0 -180 53 -23 c28 -13 89 -35 134 -50 45 -15 93 -36
107 -47 28 -22 81 -25 93 -6 4 8 42 26 83 41 41 16 105 39 143 54 l67 25 0
184 c0 115 -4 183 -10 183 -6 0 -10 -63 -10 -169 0 -126 -3 -171 -13 -179 -7
-6 -54 -27 -104 -46 -51 -19 -105 -41 -120 -49 -15 -8 -39 -18 -51 -22 -21 -6
-23 -5 -13 12 5 11 64 48 130 82 l121 62 0 185 c0 101 -1 183 -2 183 -2 -1
-50 -26 -108 -55z m-294 -39 c50 -24 103 -58 117 -74 l24 -29 13 24 c12 22
192 124 219 124 8 0 11 -45 9 -151 l-3 -150 -95 -50 c-52 -27 -107 -63 -121
-80 l-26 -30 -20 26 c-10 15 -64 50 -118 78 l-100 52 -3 153 c-1 83 1 152 5
152 4 0 48 -20 99 -45z"/>
<path d="M535 507 c11 -8 52 -31 90 -52 49 -27 65 -32 52 -18 -20 23 -127 83
-148 83 -8 0 -5 -5 6 -13z"/>
<path d="M837 483 c-37 -20 -73 -46 -79 -57 -10 -20 -10 -20 8 -5 10 9 49 32
87 53 62 34 78 46 60 46 -5 0 -39 -17 -76 -37z"/>
<path d="M535 424 c11 -9 43 -27 70 -41 28 -14 58 -32 68 -41 9 -8 17 -10 17
-4 0 14 -40 42 -107 76 -58 29 -78 33 -48 10z"/>
<path d="M845 405 c-34 -18 -69 -43 -80 -55 -13 -15 -3 -11 38 13 31 19 70 40
87 47 16 7 30 16 30 21 0 15 -12 10 -75 -26z"/>
<path d="M520 352 c0 -4 38 -28 85 -54 47 -25 85 -45 85 -43 0 3 -10 14 -22
25 -35 33 -148 88 -148 72z"/>
<path d="M849 325 c-36 -18 -72 -41 -80 -51 -17 -20 -15 -20 79 29 39 20 72
42 72 47 0 13 6 15 -71 -25z"/>
</g>
</svg>
