<?xml version="1.0" standalone="no"?>
<!DOCTYPE svg PUBLIC "-//W3C//DTD SVG 20010904//EN"
 "http://www.w3.org/TR/2001/REC-SVG-20010904/DTD/svg10.dtd">
<svg version="1.0" xmlns="http://www.w3.org/2000/svg"
 width="244.000000pt" height="160.000000pt" viewBox="0 0 244.000000 160.000000"
 preserveAspectRatio="xMidYMid meet">

<g transform="translate(0.000000,160.000000) scale(0.100000,-0.100000)"
fill="#000000" stroke="none">
<path d="M1135 1358 c-79 -10 -177 -60 -242 -121 -56 -53 -62 -64 -38 -73 9
-4 35 12 65 40 171 153 407 151 570 -5 42 -40 52 -45 66 -35 15 11 14 16 -15
49 -66 75 -200 141 -301 149 -25 2 -72 0 -105 -4z"/>
<path d="M1120 1227 c-55 -16 -105 -45 -143 -85 -28 -29 -28 -30 -9 -36 15 -5
34 3 67 28 103 79 241 75 352 -10 23 -17 40 -23 54 -19 20 7 20 8 -7 37 -71
74 -216 113 -314 85z"/>
<path d="M1106 1089 c-38 -20 -39 -22 -21 -35 11 -8 26 -11 35 -8 58 25 92 28
137 12 35 -13 52 -14 66 -6 19 10 18 12 -14 31 -49 32 -151 34 -203 6z"/>
<path d="M1360 1004 c-59 -30 -116 -66 -131 -83 l-25 -31 -34 35 c-26 27 -203
125 -226 125 -2 0 -4 -81 -4 -179 l0 -179 108 -57 c59 -31 115 -64 125 -72 20
-18 23 -38 5 -30 -7 3 -74 30 -148 61 l-135 54 -3 176 c-1 97 -7 176 -12 176
-15 0 -18 -29 -19 -198 l-1 -163 46 -19 c25 -11 85 -34 132 -50 48 -17 99 -40
114 -50 33 -24 71 -26 92 -4 9 8 66 33 128 55 62 23 125 45 141 51 l27 10 0
184 c0 113 -4 184 -10 184 -6 0 -11 -70 -12 -176 l-3 -177 -110 -42 c-60 -23
-127 -50 -147 -59 -47 -20 -51 -20 -39 2 5 10 64 47 130 81 l121 62 0 185 c0
101 -1 183 -2 183 -2 -1 -50 -26 -108 -55z m-293 -38 c49 -25 101 -58 115 -75
l25 -30 11 23 c10 22 193 126 221 126 7 0 11 -49 11 -150 l0 -149 -92 -48
c-51 -26 -107 -63 -125 -80 l-31 -33 -19 25 c-10 14 -63 49 -118 78 l-100 52
-3 153 c-1 83 1 152 6 152 4 0 49 -20 99 -44z"/>
<path d="M1000 925 c0 -2 24 -17 53 -31 28 -15 64 -35 79 -45 35 -25 46 -24
22 2 -29 33 -154 93 -154 74z"/>
<path d="M1318 895 c-37 -19 -72 -45 -79 -56 l-11 -22 28 20 c16 11 52 32 81
47 47 23 76 47 56 46 -4 -1 -38 -16 -75 -35z"/>
<path d="M1005 840 c4 -6 34 -24 68 -41 34 -17 71 -39 81 -48 16 -13 18 -13
14 -1 -2 8 -36 34 -74 57 -67 41 -102 54 -89 33z"/>
<path d="M1330 821 c-30 -16 -66 -42 -80 -57 l-25 -28 32 23 c18 12 57 33 87
47 31 14 56 30 56 35 0 14 -10 11 -70 -20z"/>
<path d="M1000 762 c0 -4 38 -28 85 -54 57 -31 82 -40 75 -29 -5 10 -40 34
-79 55 -72 38 -81 41 -81 28z"/>
<path d="M1330 735 c-36 -18 -74 -43 -85 -55 -15 -16 1 -11 60 21 84 44 101
56 94 63 -2 2 -33 -11 -69 -29z"/>
<path d="M1091 373 c-64 -34 -93 -103 -77 -187 13 -70 104 -127 178 -111 39 9
26 20 -26 21 -57 2 -100 26 -120 68 -20 42 -21 86 -2 129 20 48 50 69 104 75
41 3 52 0 80 -23 49 -41 64 -134 26 -166 -23 -19 -34 0 -34 60 l0 57 -55 2
c-54 1 -56 0 -72 -32 -20 -42 -11 -80 23 -103 24 -16 29 -16 54 -1 25 14 30
14 43 1 32 -32 87 23 87 86 0 36 -31 99 -56 116 -39 25 -113 29 -153 8z m89
-102 c14 -26 13 -74 -2 -89 -48 -48 -99 39 -55 96 14 18 45 15 57 -7z"/>
<path d="M170 245 l0 -136 62 3 c50 2 63 7 66 20 3 15 -1 15 -33 7 -65 -18
-68 -14 -64 121 4 109 2 120 -13 120 -16 0 -18 -13 -18 -135z"/>
<path d="M1365 245 c0 -120 2 -135 17 -135 14 0 18 11 20 63 l3 62 60 0 60 0
-2 -62 c-3 -57 -1 -63 17 -63 19 0 20 7 20 135 0 129 -1 135 -20 135 -18 0
-20 -6 -18 -57 l3 -58 -62 -3 -63 -3 0 61 c0 50 -3 60 -17 60 -16 0 -18 -13
-18 -135z"/>
<path d="M383 285 c-25 -18 -47 -83 -37 -111 14 -38 47 -64 80 -64 18 0 36 5
39 10 4 6 -6 10 -22 10 -36 0 -49 9 -62 43 l-11 27 56 0 57 0 -7 33 c-6 32
-37 67 -60 67 -6 0 -21 -7 -33 -15z m67 -24 c18 -34 11 -41 -35 -41 -50 0 -49
-1 -33 35 14 30 53 34 68 6z"/>
<path d="M553 293 c-21 -8 -15 -22 7 -16 25 7 50 -13 50 -39 0 -13 -14 -25
-44 -37 -48 -21 -61 -42 -46 -72 11 -20 54 -26 65 -9 3 6 -3 10 -14 10 -20 0
-37 32 -26 50 3 5 19 10 36 10 27 0 29 -2 29 -40 0 -30 4 -40 16 -40 26 0 16
156 -11 176 -19 14 -40 17 -62 7z"/>
<path d="M754 285 c-18 -14 -18 -14 9 -15 17 0 27 5 27 15 0 19 -11 19 -36 0z"/>
<path d="M893 293 c-20 -8 -15 -21 10 -25 20 -3 22 -9 25 -80 2 -60 6 -78 17
-78 12 0 15 16 15 79 0 96 -18 124 -67 104z"/>
<path d="M1650 273 c-44 -40 -50 -90 -15 -131 35 -42 75 -43 116 -3 21 22 29
39 29 66 0 27 -8 44 -29 66 -37 36 -62 37 -101 2z m79 -19 c44 -56 11 -147
-43 -123 -43 20 -59 86 -30 127 20 29 48 28 73 -4z"/>
<path d="M1885 288 c-19 -12 -18 -13 10 -18 30 -5 30 -5 33 -83 2 -59 6 -77
17 -77 22 0 21 152 -1 174 -18 19 -32 20 -59 4z"/>
<path d="M1994 285 c-18 -14 -18 -14 8 -15 34 0 42 -26 36 -106 -4 -45 -2 -54
10 -52 12 2 15 19 13 83 -3 102 -20 125 -67 90z"/>
<path d="M2153 285 c-26 -19 -47 -77 -38 -107 12 -40 46 -68 81 -68 18 0 36 5
39 10 4 6 -6 10 -22 10 -36 0 -49 9 -62 43 l-11 27 56 0 57 0 -7 33 c-6 32
-37 67 -60 67 -6 0 -21 -7 -33 -15z m67 -24 c17 -33 12 -41 -28 -41 -48 0 -54
5 -40 36 14 29 53 32 68 5z"/>
<path d="M690 200 c0 -71 3 -90 14 -90 11 0 15 19 18 80 3 91 2 100 -18 100
-11 0 -14 -19 -14 -90z"/>
<path d="M825 200 c-1 -64 3 -90 11 -90 9 0 14 26 16 80 3 89 2 100 -15 100
-8 0 -12 -28 -12 -90z"/>
<path d="M1824 200 c0 -67 4 -90 13 -90 10 0 13 23 13 90 0 67 -3 90 -13 90
-9 0 -13 -23 -13 -90z"/>
</g>
</svg>
