<?xml version="1.0" standalone="no"?>
<!DOCTYPE svg PUBLIC "-//W3C//DTD SVG 20010904//EN"
 "http://www.w3.org/TR/2001/REC-SVG-20010904/DTD/svg10.dtd">
<svg version="1.0" xmlns="http://www.w3.org/2000/svg"
 width="200.000000pt" height="150.000000pt" viewBox="0 0 200.000000 150.000000"
 preserveAspectRatio="xMidYMid meet">

<g transform="translate(0.000000,150.000000) scale(0.100000,-0.100000)"
fill="#000000" stroke="none">
<path d="M618 1291 c-83 -92 -128 -216 -128 -349 1 -85 13 -140 51 -218 37
-78 133 -184 151 -166 9 9 1 22 -34 59 -92 99 -128 194 -128 338 0 133 43 246
124 324 19 18 32 40 29 47 -8 22 -19 17 -65 -35z"/>
<path d="M1327 1328 c-2 -7 16 -35 40 -63 104 -115 145 -276 108 -419 -22 -85
-64 -163 -119 -223 -37 -41 -46 -57 -37 -66 8 -8 20 -2 47 24 195 189 205 516
21 716 -42 45 -53 51 -60 31z"/>
<path d="M747 1161 c-76 -85 -100 -236 -53 -337 33 -70 94 -138 112 -123 10 8
7 17 -20 43 -56 57 -71 99 -71 206 0 100 14 141 64 199 23 26 26 37 12 45 -5
3 -25 -12 -44 -33z"/>
<path d="M1215 1190 c-3 -5 10 -30 30 -55 44 -58 69 -141 63 -210 -4 -53 -51
-165 -69 -165 -5 0 -9 27 -9 60 0 55 2 62 25 72 14 6 25 14 24 17 0 3 -39 32
-87 64 -48 31 -102 68 -121 82 -40 29 -85 32 -122 7 -120 -79 -209 -144 -209
-152 0 -5 25 -26 55 -46 53 -35 54 -38 57 -88 3 -45 6 -52 33 -66 41 -21 199
-21 240 0 27 14 30 21 33 67 2 41 8 56 25 68 12 8 25 15 29 15 12 0 10 -128
-2 -135 -5 -3 -10 -22 -10 -41 0 -33 2 -35 28 -32 23 3 27 7 24 30 -2 17 9 45
32 80 44 67 70 164 61 227 -8 54 -46 139 -82 181 -26 31 -38 36 -48 20z m-90
-400 c25 -21 4 -31 -40 -19 -34 10 -116 8 -189 -3 -33 -5 -29 21 6 31 47 14
202 8 223 -9z"/>
<path d="M132 417 l-2 -108 50 3 c62 4 66 18 5 18 l-44 0 -4 98 -3 97 -2 -108z"/>
<path d="M1154 415 c0 -60 1 -86 3 -57 l4 52 59 0 59 0 4 -52 c2 -29 3 -3 3
57 0 61 -1 89 -3 63 l-4 -48 -59 0 -59 0 -4 48 c-2 26 -3 -2 -3 -63z"/>
<path d="M927 499 c-27 -16 -47 -64 -47 -114 0 -65 31 -95 99 -95 27 0 52 3
54 8 3 4 -19 5 -48 4 -47 -3 -54 -1 -74 24 -44 56 -13 165 52 177 19 4 20 4 2
5 -11 1 -28 -3 -38 -9z"/>
<path d="M1026 500 c58 -23 77 -140 23 -140 -16 0 -19 8 -19 45 0 25 -4 45
-10 45 -5 0 -7 -6 -5 -12 3 -7 1 -26 -3 -43 -6 -23 -14 -30 -33 -30 -19 0 -25
6 -27 30 -3 19 2 34 15 43 12 10 13 13 3 10 -22 -7 -40 -47 -31 -72 9 -24 45
-33 66 -16 9 7 15 8 20 0 10 -17 44 -11 55 9 29 56 -10 143 -63 140 -7 0 -2
-4 9 -9z"/>
<path d="M303 459 c-41 -15 -56 -76 -28 -116 16 -23 52 -33 81 -22 14 6 10 8
-16 8 -40 1 -60 16 -60 43 0 15 9 18 50 18 42 0 50 3 50 18 0 39 -39 65 -77
51z m56 -28 c14 -25 5 -31 -41 -31 -30 0 -38 4 -38 18 0 25 9 32 41 32 17 0
32 -7 38 -19z"/>
<path d="M460 460 c-22 -6 -20 -8 15 -11 32 -3 41 -8 43 -26 3 -20 -1 -23 -30
-23 -48 0 -73 -20 -65 -52 8 -31 37 -40 71 -23 19 10 26 10 30 2 3 -7 4 19 3
57 -2 75 -15 90 -67 76z m60 -88 c0 -26 -20 -42 -52 -42 -23 0 -28 4 -28 23 0
31 7 37 47 37 25 0 33 -4 33 -18z"/>
<path d="M593 390 c0 -76 1 -79 6 -29 7 61 23 89 52 89 11 0 19 5 19 10 0 14
-13 12 -36 -5 -25 -19 -32 -19 -37 3 -3 9 -5 -21 -4 -68z"/>
<path d="M713 390 c0 -82 0 -83 6 -23 7 71 17 86 57 81 28 -3 29 -4 32 -70 4
-83 22 -91 22 -10 0 82 -31 114 -83 87 -23 -12 -26 -11 -30 3 -3 10 -5 -21 -4
-68z"/>
<path d="M1395 462 c-29 -6 -45 -31 -45 -71 0 -44 8 -57 41 -70 36 -13 71 6
82 45 16 57 -25 107 -78 96z m53 -24 c7 -7 12 -28 12 -48 0 -20 -5 -41 -12
-48 -19 -19 -66 -15 -78 7 -24 47 -4 101 38 101 16 0 33 -5 40 -12z"/>
<path d="M1532 390 c1 -83 1 -84 7 -23 7 69 18 86 52 81 22 -3 24 -8 27 -70 4
-83 22 -91 22 -9 0 64 13 85 52 79 21 -3 23 -9 26 -70 2 -38 7 -68 12 -68 13
0 13 106 0 131 -12 22 -59 26 -78 7 -9 -9 -15 -9 -24 0 -15 15 -65 16 -74 0
-5 -8 -10 -6 -15 8 -4 11 -7 -18 -7 -66z"/>
<path d="M1800 441 c-5 -11 -10 -35 -10 -54 0 -47 27 -69 77 -64 l38 4 -42 1
c-30 2 -45 7 -53 21 -18 35 -12 41 45 41 60 0 67 9 39 48 -20 29 -79 31 -94 3z
m84 -7 c11 -29 6 -34 -39 -34 -46 0 -58 13 -33 38 17 17 65 15 72 -4z"/>
</g>
</svg>
